<svg id="Camada_1" data-name="Camada 1" xmlns="http://www.w3.org/2000/svg" viewBox="0 0 191.91 277.24"><defs><style>.cls-1{fill:#1d1d1b;stroke:#1d1d1b;stroke-miterlimit:10;stroke-width:0.69px;}</style></defs><title>central_park_icon</title><polygon class="cls-1" points="101.36 276.9 107.84 276.9 107.83 208.54 101.38 208.54 101.36 276.9"/><path class="cls-1" d="M1158,460.22c73-22.66,71.12-103,71.12-103.19v-4.41l-3.06-.25c-23.4-1.93-40.47,3.53-52.94,12.47l0-.73c0-3.18,0-6.29-.17-9.36-3.19-68.28-37.66-107.28-37.76-107.38l-2-2.3-3.25,3.8c-4,5.06-16.08,21.5-25.24,47.65a203.79,203.79,0,0,0-11.13,58.06c-.14,2.92-.19,6-.18,9l0,.93c-12.43-8.75-29.36-14.07-52.47-12.16l-3.06.25V357c0,.23-.22,80.76,72.4,103.75l14.82,3.86-.61-5.26,1.71-4.35-2.42-1.29-5.6-2.34c-50.52-17.66-72.83-74.53-74-89.93,74.17-3.92,76.53,72.67,76.59,76l-.16,16,6.43,1.06.19-17.17c0-.14-.32-28.34-15.14-52.3a121.56,121.56,0,0,1,11.56-44,96.92,96.92,0,0,1,9.17-15.5c5.64,8,6,138.85,6,149.47l6.46-1.48-.09-21.23.24-14.87c.07-3.36,2.43-79.95,76.6-76-1.12,15.4-20.89,70.21-73.48,89.93l-3.36,1-2.14,12S1154.28,461.37,1158,460.22Zm8.5-89.91a72.27,72.27,0,0,0-6.84,7.46c-4.66-39.65-24.47-62.07-24.53-62.13l-1.92-2.24-3.34,4a103.73,103.73,0,0,0-11.14,18.37,133,133,0,0,0-12,41.26,67.1,67.1,0,0,0-6.7-7.14c-.1-2.2-.17-4.33-.19-6.38q0-4,.16-8.29a191.78,191.78,0,0,1,10.47-54.48c8-22.9,18.32-37.82,22.72-43.57,7.12,9.22,30.77,43.76,33.31,98.22.14,3,.19,5.84.17,8.62C1166.63,366.09,1166.57,368.2,1166.46,370.31Z" transform="translate(-1037.53 -244.53)"/><polygon class="cls-1" points="83.12 276.9 89.59 276.9 89.58 208.54 83.12 208.54 83.12 276.9"/></svg>