<svg id="Camada_1" data-name="Camada 1" xmlns="http://www.w3.org/2000/svg" viewBox="0 0 1354.49 391.85"><defs><style>.cls-1,.cls-2,.cls-3{fill:#fff;}.cls-1,.cls-2{stroke:#fff;stroke-miterlimit:10;}.cls-1{stroke-width:0.69px;}.cls-2{stroke-width:11px;}</style></defs><title>central_park_logo</title><polygon class="cls-1" points="101.36 276.9 107.84 276.9 107.83 208.54 101.38 208.54 101.36 276.9"/><path class="cls-1" d="M374.77,672.63c73-22.67,71.12-103,71.12-103.2V565l-3.06-.26c-23.4-1.92-40.47,3.54-52.94,12.47l0-.72c0-3.18,0-6.29-.17-9.37-3.19-68.27-37.66-107.27-37.76-107.38l-2-2.3-3.25,3.81c-4,5.05-16.07,21.49-25.23,47.65A203.42,203.42,0,0,0,310.37,567c-.14,2.92-.19,6-.17,9v.93c-12.42-8.76-29.36-14.07-52.47-12.17l-3.06.26v4.4c0,.23-.22,80.77,72.4,103.75L341.9,677l-.61-5.26,1.71-4.34-2.42-1.3-5.6-2.33c-50.52-17.66-72.83-74.53-74-89.93,74.17-3.92,76.54,72.66,76.59,76l-.16,16,6.43,1.06.19-17.17c0-.15-.32-28.35-15.14-52.31a121.68,121.68,0,0,1,11.56-44,97.39,97.39,0,0,1,9.17-15.5c5.64,8,6,138.85,6,149.48l6.46-1.49-.09-21.23.24-14.86c.07-3.37,2.43-79.95,76.6-76-1.12,15.4-20.89,70.2-73.48,89.93l-3.36,1-2.14,12S371.09,673.77,374.77,672.63Zm8.51-89.91a70.29,70.29,0,0,0-6.85,7.46C371.78,550.53,352,528.11,351.9,528L350,525.81l-3.34,4a104.54,104.54,0,0,0-11.14,18.36,133.07,133.07,0,0,0-12,41.26,68.07,68.07,0,0,0-6.7-7.14c-.1-2.19-.17-4.33-.19-6.38,0-2.66,0-5.43.16-8.28a191.86,191.86,0,0,1,10.47-54.49c8-22.89,18.32-37.82,22.72-43.56,7.12,9.21,30.77,43.75,33.31,98.21.14,3,.19,5.85.17,8.63C383.44,578.5,383.38,580.61,383.28,582.72Z" transform="translate(-254.34 -456.94)"/><polygon class="cls-1" points="83.12 276.9 89.59 276.9 89.58 208.54 83.12 208.54 83.12 276.9"/><path class="cls-2" d="M515,702a51.26,51.26,0,0,1-16.22-12.5,61.07,61.07,0,0,1-11-18.57,66.2,66.2,0,0,1,0-45.6,61.25,61.25,0,0,1,11-18.58A51.37,51.37,0,0,1,515,594.27a44.56,44.56,0,0,1,19.9-4.56v.17a15.17,15.17,0,0,1,2.29-.17h2.28a45.57,45.57,0,0,1,13.5,2,49.17,49.17,0,0,1,12.46,5.91l-.74,1.52a45.11,45.11,0,0,0-25.22-7.76,43,43,0,0,0-19.24,4.47A50.47,50.47,0,0,0,504.44,608a58.44,58.44,0,0,0-10.61,18.07,64.52,64.52,0,0,0,0,44.24,58.32,58.32,0,0,0,10.61,18.07,50.32,50.32,0,0,0,15.78,12.16,42.84,42.84,0,0,0,19.24,4.48,43.44,43.44,0,0,0,23.3-6.76l.74,1.52a46.22,46.22,0,0,1-24,6.76h-2.28a16.6,16.6,0,0,1-2.29-.17v.17A44.56,44.56,0,0,1,515,702Z" transform="translate(-254.34 -456.94)"/><path class="cls-2" d="M610.24,591.06v39h32.59v1.52H610.24v71.6H653v1.69h-49V589.37h46v1.69Z" transform="translate(-254.34 -456.94)"/><path class="cls-2" d="M754.15,589.37h1.48V704.88H751.2L693.64,597l-.53,0V704.88h-1.48V589.37h4.57L754,696.94h.17Z" transform="translate(-254.34 -456.94)"/><path class="cls-2" d="M823.45,704.88V591.06h-29.2v-1.69h64.59v1.69h-29.2V704.88Z" transform="translate(-254.34 -456.94)"/><path class="cls-2" d="M925.92,589.54h5.17a29.36,29.36,0,0,1,12.09,2.7,31.6,31.6,0,0,1,9.8,7.35,33.59,33.59,0,0,1,6.56,11,38.49,38.49,0,0,1,2.36,13.6,38,38,0,0,1-1.55,11.06,33.65,33.65,0,0,1-4.42,9.37,31.73,31.73,0,0,1-6.78,7.26,27.46,27.46,0,0,1-8.77,4.56l16.07,48.64h-6.64l-15.63-47.46a1.71,1.71,0,0,1-.88.17H903.66v47.29h-6.19V589.54h28.45Zm-22.26,1.69v64.84h22.26A32.11,32.11,0,0,0,939,653.63a26.09,26.09,0,0,0,9.21-6.67,27,27,0,0,0,5.46-10.05,43.76,43.76,0,0,0,1.77-12.75,36,36,0,0,0-2.29-12.92,33.51,33.51,0,0,0-6.27-10.47,28.86,28.86,0,0,0-9.36-7,26.84,26.84,0,0,0-11.58-2.53Z" transform="translate(-254.34 -456.94)"/><path class="cls-2" d="M1025.45,589.37H1029l29.34,115.51H1052l-8.11-31.75H1005.7l-8.11,31.75h-1.48ZM1006,671.44h37.45L1025,597.81h-.25Z" transform="translate(-254.34 -456.94)"/><path class="cls-2" d="M1103.16,703.19h42.76v1.69h-49V589.37h6.19Z" transform="translate(-254.34 -456.94)"/><path class="cls-2" d="M1282.81,589.54h5a28.12,28.12,0,0,1,12.2,2.7,31.43,31.43,0,0,1,9.9,7.35,33.63,33.63,0,0,1,6.58,11,38.72,38.72,0,0,1,2.37,13.6,36.76,36.76,0,0,1-2.37,13.25,33.14,33.14,0,0,1-6.58,10.73,30.08,30.08,0,0,1-9.83,7.09,29.48,29.48,0,0,1-12.27,2.53h-27.49v47.29h-6.19V589.54h28.66Zm-22.47,66.53h22.41a27.68,27.68,0,0,0,11.58-2.44,29.74,29.74,0,0,0,9.36-6.67,30,30,0,0,0,6.19-10.05,35.57,35.57,0,0,0,2.21-12.75,36,36,0,0,0-2.28-12.92,34.32,34.32,0,0,0-6.2-10.47,28.13,28.13,0,0,0-9.28-7,26.84,26.84,0,0,0-11.58-2.53h-22.41Z" transform="translate(-254.34 -456.94)"/><path class="cls-2" d="M1369.89,589.37h3.54l29.34,115.51h-6.34l-8.11-31.75h-38.19L1342,704.88h-1.47Zm-19.46,82.07h37.45l-18.25-73.63h-.48Z" transform="translate(-254.34 -456.94)"/><path class="cls-2" d="M1469.86,589.54H1475a27.45,27.45,0,0,1,12.09,2.7,31.53,31.53,0,0,1,9.81,7.35,33.59,33.59,0,0,1,6.56,11,38.72,38.72,0,0,1,2.36,13.6,38.3,38.3,0,0,1-1.55,11.06,33.93,33.93,0,0,1-4.42,9.37,31.55,31.55,0,0,1-6.79,7.26,27.26,27.26,0,0,1-8.77,4.56l16.07,48.64h-6.63l-15.63-47.46a1.75,1.75,0,0,1-.89.17H1447.6v47.29h-6.2V589.54h28.46Zm-22.26,1.69v64.84h22.26a32.06,32.06,0,0,0,13.05-2.44,26,26,0,0,0,9.22-6.67,27.16,27.16,0,0,0,5.45-10.05,43.76,43.76,0,0,0,1.77-12.75,36,36,0,0,0-2.28-12.92,33.7,33.7,0,0,0-6.27-10.47,29,29,0,0,0-9.36-7,26.84,26.84,0,0,0-11.58-2.53Z" transform="translate(-254.34 -456.94)"/><path class="cls-2" d="M1550.66,655.06l40.7-65.69h1.77l-22.86,36.81,30.53,78.7H1594l-27.86-71.94-15.49,25v47h-6.19V589.37h6.19Z" transform="translate(-254.34 -456.94)"/><path class="cls-3" d="M339.28,810.3v35.41H327V766.8h19.83a64.2,64.2,0,0,1,13,1,20.27,20.27,0,0,1,7.24,3.09,18.46,18.46,0,0,1,5.95,7.42,24.08,24.08,0,0,1,2.15,10.26A24.66,24.66,0,0,1,373,798.87a17.81,17.81,0,0,1-5.95,7.44,19.9,19.9,0,0,1-7.24,3.07,65.47,65.47,0,0,1-13,.92h-7.54Zm.82-10.51h3.36c7.28,0,12.12-.77,14.55-2.32s3.63-4.27,3.63-8.19q0-6.31-3.88-8.9t-14.3-2.58H340.1Z" transform="translate(-254.34 -456.94)"/><path class="cls-3" d="M400.81,845.71V766.8h13.11v67.43h29.31v11.48Z" transform="translate(-254.34 -456.94)"/><path class="cls-3" d="M520.91,845.71l-9.15-20.32H479.81l-9.37,20.32H456.67l39.06-82,39,82Zm-36.26-31h22.48l-8.26-18c-.48-1.15-1-2.47-1.49-4s-1-3.16-1.54-5q-.66,2.58-1.41,4.82c-.49,1.5-1,2.87-1.51,4.13Z" transform="translate(-254.34 -456.94)"/><path class="cls-3" d="M547.84,845.71l41.1-68H554.73V766.8H609.1l-40.71,67.43H609.6v11.48Z" transform="translate(-254.34 -456.94)"/><path class="cls-3" d="M688.16,845.71,679,825.39h-32l-9.37,20.32H623.92l39.06-82,39,82Zm-36.26-31h22.48l-8.26-18c-.48-1.15-1-2.47-1.49-4s-1-3.16-1.54-5q-.66,2.58-1.41,4.82c-.49,1.5-1,2.87-1.51,4.13Z" transform="translate(-254.34 -456.94)"/><path class="cls-3" d="M766.54,829.92,777,825.18a14.12,14.12,0,0,0,5.45,8.06A17.31,17.31,0,0,0,792.6,836q5.83,0,9.28-3.18a11,11,0,0,0,3.45-8.51q0-7-11.79-12.4c-1.11-.54-1.95-.94-2.54-1.19q-13.34-6.36-17.77-11.51a18.62,18.62,0,0,1-4.43-12.58q0-9.64,6.69-15.63T793,765q8.93,0,14.93,3.37a17.87,17.87,0,0,1,8.32,9.68L806,783.24a16.87,16.87,0,0,0-5.31-5.44,12.74,12.74,0,0,0-6.64-1.73q-5.3,0-8.4,2.7a9,9,0,0,0-3.12,7.22q0,7.11,13.67,13.26l1.65.76q12,5.38,16.42,10.53a19,19,0,0,1,4.46,12.86q0,11.21-7.22,17.81t-19.5,6.61q-10.31,0-16.89-4.64A21.63,21.63,0,0,1,766.54,829.92Z" transform="translate(-254.34 -456.94)"/><path class="cls-3" d="M846.86,845.71V766.8H860v29.11h39.67V766.8h13.11v78.91H899.64V807.39H860v38.32Z" transform="translate(-254.34 -456.94)"/><path class="cls-3" d="M1027.73,806.42a39.76,39.76,0,0,1-3.23,15.9,40.26,40.26,0,0,1-9.39,13.37,44.63,44.63,0,0,1-47.08,9,42.85,42.85,0,0,1-14-9,40.69,40.69,0,0,1-9.37-45.23A40.61,40.61,0,0,1,954.07,777a42.68,42.68,0,0,1,14-8.94,46,46,0,0,1,33.08,0,42.8,42.8,0,0,1,14,8.94,41.32,41.32,0,0,1,9.39,13.51A39.82,39.82,0,0,1,1027.73,806.42Zm-13.67,0a29.42,29.42,0,0,0-8.65-21,28.58,28.58,0,0,0-9.44-6.39,30,30,0,0,0-22.65,0,28.88,28.88,0,0,0-9.56,6.41,28.59,28.59,0,0,0-6.39,9.54,29.94,29.94,0,0,0-2.2,11.43,29.09,29.09,0,0,0,8.59,20.86,29,29,0,0,0,9.53,6.41,29.32,29.32,0,0,0,11.35,2.21,28.77,28.77,0,0,0,11.21-2.21,29.78,29.78,0,0,0,16-16A29,29,0,0,0,1014.06,806.42Z" transform="translate(-254.34 -456.94)"/><path class="cls-3" d="M1068.82,810.3v35.41h-12.29V766.8h19.84a64.09,64.09,0,0,1,13,1,20.32,20.32,0,0,1,7.25,3.09,18.63,18.63,0,0,1,6,7.42,24.23,24.23,0,0,1,2.15,10.26,24.81,24.81,0,0,1-2.15,10.35,18,18,0,0,1-6,7.44,20,20,0,0,1-7.25,3.07,65.35,65.35,0,0,1-13,.92h-7.55Zm.83-10.51H1073q10.9,0,14.54-2.32t3.64-8.19q0-6.31-3.89-8.9T1073,777.8h-3.36Z" transform="translate(-254.34 -456.94)"/><path class="cls-3" d="M1142.64,810.3v35.41h-12.29V766.8h19.84a64.09,64.09,0,0,1,13,1,20.4,20.4,0,0,1,7.25,3.09,18.63,18.63,0,0,1,5.95,7.42,24.23,24.23,0,0,1,2.14,10.26,24.81,24.81,0,0,1-2.14,10.35,18,18,0,0,1-5.95,7.44,20,20,0,0,1-7.25,3.07,65.35,65.35,0,0,1-13,.92h-7.55Zm.82-10.51h3.37q10.9,0,14.54-2.32c2.42-1.54,3.64-4.27,3.64-8.19q0-6.31-3.89-8.9t-14.29-2.58h-3.37Z" transform="translate(-254.34 -456.94)"/><path class="cls-3" d="M1204.39,845.71V766.8h13.11v78.91Z" transform="translate(-254.34 -456.94)"/><path class="cls-3" d="M1250.11,845.71v-82l51.24,48.24c1.39,1.36,2.81,2.82,4.24,4.36s2.94,3.29,4.52,5.23V766.8h12.12v82l-52.29-49.11q-2.09-2-4-4.2c-1.3-1.48-2.54-3-3.71-4.64v54.87Z" transform="translate(-254.34 -456.94)"/><path class="cls-3" d="M1399.19,805.29h32c0,.54,0,1.29.06,2.26.11,2.55.16,4.28.16,5.18q0,16.65-9.75,25.87t-27.49,9.22a51.16,51.16,0,0,1-17.69-2.86,37.62,37.62,0,0,1-13.6-8.62,39.14,39.14,0,0,1-8.79-13.43,44.23,44.23,0,0,1-3.06-16.49,42.93,42.93,0,0,1,3.11-16.49,38.36,38.36,0,0,1,9.23-13.32,39.82,39.82,0,0,1,13.83-8.62,48,48,0,0,1,17-3,40.9,40.9,0,0,1,17.05,3.4,37.8,37.8,0,0,1,13.42,10.4l-9.59,7.06a26.48,26.48,0,0,0-9.2-6.9,28.07,28.07,0,0,0-11.46-2.26q-13.11,0-21.4,8.22t-8.3,21.37q0,13.37,8.3,21.7t21.51,8.33q11.23,0,17.69-5.13t6.44-14v-1.13h-19.39Z" transform="translate(-254.34 -456.94)"/></svg>