<?xml version="1.0" encoding="utf-8"?>
<!-- Generator: Adobe Illustrator 24.0.1, SVG Export Plug-In . SVG Version: 6.00 Build 0)  -->
<svg version="1.1" id="Camada_1" xmlns="http://www.w3.org/2000/svg" xmlns:xlink="http://www.w3.org/1999/xlink" x="0px" y="0px"
	 viewBox="0 0 857.5 279.5" style="enable-background:new 0 0 857.5 279.5;" xml:space="preserve">
<style type="text/css">
	.st0{fill:#FFFFFF;}
</style>
<g>
	<g>
		<g>
			<path class="st0" d="M313.1,142.1c-1.1-1.3-2.5-1.9-4-1.9h-29.6c-1.6,0-2.9,0.6-4,1.9c-1.1,1.3-1.6,2.9-1.6,4.8v0.1
				c0,1.8,0.5,3.4,1.6,4.7s2.5,2,4,2h23.2c-0.8,5.8-3.5,11-8.2,15.8s-10.1,7.1-16.3,7.1c-6.9,0-12.8-2.9-17.7-8.6
				c-4.9-5.8-7.3-12.8-7.3-21s2.4-15.2,7.3-21c4.9-5.8,10.8-8.7,17.7-8.7c7.3,0,13.5,3.2,18.4,9.6c1,1.3,2.2,2,3.6,2.2
				c0.2,0,0.4,0.1,0.7,0.1c1.1,0,2.2-0.4,3.3-1.3l0.1-0.1c1.3-1.1,2.1-2.6,2.3-4.6c0-0.2,0-0.5,0-0.7c0-1.7-0.5-3.2-1.5-4.5
				c-0.5-0.6-1-1.2-1.5-1.8c-0.9-1.2-2-2.3-3.2-3.3c-8.1-6.5-19.7-10-35.1-10c-22.8,0-45.8-0.3-45.8-0.3c0,8.3-0.2,62.5-0.2,87.8
				c0,0.2,57.5,0,59,0c3.9,0,7.6-0.7,11.1-1.9c5.5-1.6,10.1-4.7,14.6-9.8c7.5-8.5,11.2-18.9,11.2-30.9v-0.1c0-0.9-0.3-1.7-0.7-2.4
				C314.3,143.9,313.8,143,313.1,142.1z"/>
			<path class="st0" d="M347.7,108.4c-6.6,0-12.3,2.6-17,7.9s-7.1,11.7-7.1,19.2V184c0,1.8,0.6,3.3,1.7,4.5c1.1,1.3,2.4,1.9,4,1.9
				h0.1c1.5,0,2.8-0.6,4-1.9c1.1-1.2,1.7-2.7,1.7-4.5v-23.4h25.4V184c0,1.8,0.6,3.3,1.7,4.5c1.1,1.3,2.4,1.9,4,1.9h0.1
				c1.5,0,2.8-0.6,4-1.9c1.1-1.2,1.7-2.7,1.7-4.5v-48.5c0-7.5-2.4-13.9-7.1-19.2C360.1,111.1,354.4,108.4,347.7,108.4z M360.5,147.8
				h-25.4v-12.3c0-4,1.2-7.3,3.7-10.1c2.5-2.8,5.5-4.2,9-4.2s6.6,1.4,9,4.2c2.5,2.8,3.7,6.2,3.7,10.1L360.5,147.8L360.5,147.8z"/>
			<path class="st0" d="M488.7,153.4c-4.6-1.4-7.2-2.4-7.8-2.8c-1.8-1.1-2.7-2.8-2.7-5c0-1.6,0.5-2.9,1.4-4.1
				c0.9-1.1,2.1-1.7,3.4-1.7h9c1.6,0,2.9-0.7,4-2s1.7-2.8,1.7-4.7V133c0-1.8-0.6-3.4-1.7-4.8c-1.1-1.3-2.5-2-4-2h-8.6
				c-4.5,0-8.3,1.9-11.5,5.7s-4.8,8.3-4.8,13.6c0,5.5,1.3,9.7,3.9,12.7c1.8,2.1,4.5,3.8,8.2,5.1c4.8,1.6,7.4,2.5,7.8,2.8
				c1.8,1,2.7,2.6,2.7,4.6c0,1.6-0.5,3-1.4,4.1s-2.1,1.7-3.4,1.7h-12.6c-1.5,0-2.8,0.7-4,2c-1.1,1.3-1.7,2.9-1.7,4.8v0.1
				c0,1.9,0.6,3.4,1.7,4.7s2.4,2,4,2h12.2c4.5,0,8.3-1.9,11.5-5.6c3.2-3.8,4.8-8.3,4.8-13.7s-1.3-9.5-3.9-12.4
				C495.1,156.3,492.4,154.7,488.7,153.4z"/>
			<path class="st0" d="M528.3,153.4c-4.6-1.4-7.2-2.4-7.8-2.8c-1.8-1.1-2.7-2.8-2.7-5c0-1.6,0.5-2.9,1.4-4.1
				c0.9-1.1,2.1-1.7,3.4-1.7h9c1.6,0,2.9-0.7,4-2s1.7-2.8,1.7-4.7V133c0-1.8-0.6-3.4-1.7-4.8c-1.1-1.3-2.5-2-4-2H523
				c-4.5,0-8.3,1.9-11.5,5.7s-4.8,8.3-4.8,13.6c0,5.5,1.3,9.7,3.9,12.7c1.8,2.1,4.5,3.8,8.2,5.1c4.8,1.6,7.4,2.5,7.8,2.8
				c1.8,1,2.7,2.6,2.7,4.6c0,1.6-0.5,3-1.4,4.1s-2.1,1.7-3.4,1.7H512c-1.5,0-2.8,0.7-4,2c-1.1,1.3-1.7,2.9-1.7,4.8v0.1
				c0,1.9,0.6,3.4,1.7,4.7s2.4,2,4,2h12.2c4.5,0,8.3-1.9,11.5-5.6c3.2-3.8,4.8-8.3,4.8-13.7s-1.3-9.5-3.9-12.4
				C534.8,156.3,532,154.7,528.3,153.4z"/>
			<path class="st0" d="M593.3,159.9c-2.7,0-4.5,1.5-5.4,4.5c-1.1,3.6-2.9,6.6-5.5,8.8c-2.7,2.3-5.7,3.5-9,3.5c-5,0-8.7-1.8-11-5.3
				c1.5-0.8,6.7-3.6,15.5-8.3c7.1-3.8,12.8-6.9,17.1-9.2c1.5-0.8,2.5-2,3-3.8c0.2-0.8,0.4-1.5,0.4-2.3c0-1-0.2-1.9-0.6-2.8
				c-2.1-5.5-5.4-10-9.7-13.4c-4.4-3.5-9.3-5.2-14.6-5.2c-7.4,0-13.7,3.1-19,9.3c-5.2,6.2-7.9,13.7-7.9,22.5s2.6,16.3,7.9,22.5
				c5.2,6.2,11.6,9.3,19,9.3c5.8,0,11-2,15.7-6c4.6-3.9,7.8-9,9.6-15.3c0.2-0.8,0.4-1.6,0.4-2.4c0-1.3-0.4-2.5-1.1-3.7
				C596.8,160.8,595.3,159.9,593.3,159.9z M557.9,158.4c0-5.1,1.5-9.4,4.5-13s6.7-5.4,10.9-5.4c4.8,0,8.3,1.6,10.6,4.9l-26,13.9
				V158.4z"/>
			<path class="st0" d="M627.5,153.4c-4.6-1.4-7.2-2.4-7.8-2.8c-1.8-1.1-2.7-2.8-2.7-5c0-1.6,0.5-2.9,1.4-4.1
				c0.9-1.1,2.1-1.7,3.4-1.7h9c1.6,0,2.9-0.7,4-2s1.7-2.8,1.7-4.7V133c0-1.8-0.6-3.4-1.7-4.8c-1.1-1.3-2.5-2-4-2h-8.6
				c-4.5,0-8.3,1.9-11.5,5.7s-4.8,8.3-4.8,13.6c0,5.5,1.3,9.7,3.9,12.7c1.8,2.1,4.5,3.8,8.2,5.1c4.8,1.6,7.4,2.5,7.8,2.8
				c1.8,1,2.7,2.6,2.7,4.6c0,1.6-0.5,3-1.4,4.1s-2.1,1.7-3.4,1.7h-12.6c-1.5,0-2.8,0.7-4,2c-1.1,1.3-1.7,2.9-1.7,4.8v0.1
				c0,1.9,0.6,3.4,1.7,4.7c1.1,1.3,2.4,2,4,2h12.2c4.5,0,8.3-1.9,11.5-5.6c3.2-3.8,4.8-8.3,4.8-13.7s-1.3-9.5-3.9-12.4
				C633.9,156.3,631.2,154.7,627.5,153.4z"/>
			<path class="st0" d="M667.1,153.4c-4.6-1.4-7.2-2.4-7.8-2.8c-1.8-1.1-2.7-2.8-2.7-5c0-1.6,0.5-2.9,1.4-4.1
				c0.9-1.1,2.1-1.7,3.4-1.7h9c1.6,0,2.9-0.7,4-2s1.7-2.8,1.7-4.7V133c0-1.8-0.6-3.4-1.7-4.8c-1.1-1.3-2.5-2-4-2H662
				c-4.5,0-8.3,1.9-11.5,5.7s-4.8,8.3-4.8,13.6c0,5.5,1.3,9.7,3.9,12.7c1.8,2.1,4.5,3.8,8.2,5.1c4.8,1.6,7.4,2.5,7.8,2.8
				c1.8,1,2.7,2.6,2.7,4.6c0,1.6-0.5,3-1.4,4.1s-2.1,1.7-3.4,1.7h-12.6c-1.5,0-2.8,0.7-4,2c-1.1,1.3-1.7,2.9-1.7,4.8v0.1
				c0,1.9,0.6,3.4,1.7,4.7c1.1,1.3,2.4,2,4,2H663c4.5,0,8.3-1.9,11.5-5.6c3.2-3.8,4.8-8.3,4.8-13.7s-1.3-9.5-3.9-12.4
				C673.6,156.3,670.8,154.7,667.1,153.4z"/>
			<path class="st0" d="M712.1,126.4c-7.4,0-13.7,3.1-19,9.3c-5.2,6.2-7.9,13.7-7.9,22.5s2.6,16.3,7.9,22.5c5.2,6.2,11.6,9.3,19,9.3
				s13.7-3.1,19-9.3c5.2-6.2,7.9-13.7,7.9-22.5s-2.6-16.3-7.9-22.5C725.9,129.5,719.5,126.4,712.1,126.4z M723,171.4
				c-3,3.6-6.6,5.4-10.9,5.4c-4.3,0-7.9-1.8-10.9-5.4c-3-3.6-4.5-7.9-4.5-12.9c0-5.1,1.5-9.4,4.5-13s6.7-5.4,10.9-5.4
				c4.3,0,7.9,1.8,10.9,5.4c3,3.6,4.5,7.9,4.5,13C727.6,163.5,726.1,167.8,723,171.4z"/>
			<path class="st0" d="M770.1,126.4h-2.7c-5.7,0-10.5,2.4-14.5,7.1c-3.9,4.8-5.9,10.5-6,17.2v32.6c0,1.9,0.6,3.4,1.7,4.7
				c1.1,1.3,2.4,2,4,2h0.1c1.5,0,2.8-0.7,4-2c1.1-1.3,1.7-2.8,1.7-4.7v-32.6c0-3,0.9-5.6,2.7-7.7c1.8-2.1,3.9-3.2,6.5-3.2h2.7
				c1.6,0,2.9-0.7,4-2s1.6-2.9,1.6-4.7V133c0-1.8-0.5-3.4-1.6-4.8C773,127.1,771.7,126.4,770.1,126.4z"/>
			<path class="st0" d="M788.3,119.2c1.8,0,3.3-0.8,4.6-2.3s2-3.3,2-5.5c0-2.1-0.7-3.9-2-5.4s-2.8-2.3-4.6-2.3s-3.3,0.8-4.6,2.3
				s-1.9,3.3-1.9,5.4s0.6,4,1.9,5.5C785,118.5,786.5,119.2,788.3,119.2z"/>
			<path class="st0" d="M788.4,126.4L788.4,126.4c-1.6,0-3,0.7-4.1,2c-1.1,1.3-1.7,2.9-1.7,4.8v50.2c0,1.9,0.6,3.4,1.7,4.7
				c1.1,1.3,2.5,2,4,2h0.1c1.6,0,2.9-0.7,4-2s1.7-2.8,1.7-4.7v-50.2c0-1.8-0.6-3.4-1.7-4.8C791.3,127.1,790,126.4,788.4,126.4z"/>
			<path class="st0" d="M433.4,108.2c-6.6,0-12.3,2.6-17,7.9s-7.1,11.7-7.1,19.2v48.5c0,1.8,0.6,3.3,1.7,4.5c1.1,1.3,2.4,1.9,4,1.9
				h0.1c1.5,0,2.8-0.6,4-1.9c1.1-1.2,1.7-2.7,1.7-4.5v-23.4h25.4v23.4c0,1.8,0.6,3.3,1.7,4.5c1.1,1.3,2.4,1.9,4,1.9h0.1
				c1.5,0,2.8-0.6,4-1.9c1.1-1.2,1.7-2.7,1.7-4.5v-48.5c0-7.5-2.4-13.9-7.1-19.2C445.7,110.9,440,108.2,433.4,108.2z M446.1,147.6
				h-25.4v-12.3c0-4,1.2-7.3,3.7-10.1c2.5-2.8,5.5-4.2,9-4.2s6.6,1.4,9,4.2c2.5,2.8,3.7,6.2,3.7,10.1L446.1,147.6L446.1,147.6z"/>
		</g>
		<path class="st0" d="M849.5,137.7c-5.3-6.1-11.8-9.2-19.3-9.2c-7.6,0-14,3.1-19.3,9.2c-5.3,6.1-8,13.5-8,22.1c0,8.7,2.7,16,8,22.1
			s11.8,9.2,19.3,9.2c6.9,0,27.1-0.2,27.1-0.3c0-1.5,0.2-31,0.2-31C857.5,151.2,854.8,143.8,849.5,137.7z M829.8,174.9
			c-8.3,0-15.1-6.8-15.1-15.1s6.8-15.1,15.1-15.1s15.1,6.8,15.1,15.1C844.9,168.1,838.1,174.9,829.8,174.9z"/>
	</g>
	<path class="st0" d="M0,95.9C-0.4,43.4,42,0.4,94.4,0s95.5,42,95.9,94.4c0.2,25,0.3,95.3,0.3,95.3s-67.3,0.4-94.8,0.6
		C43.4,190.8,0.4,148.4,0,95.9z M137.2,94.9C137,71.7,118,53,94.9,53.2C71.7,53.4,53,72.4,53.2,95.5c0.2,23.2,19.2,41.8,42.3,41.7
		C118.7,137,137.3,118,137.2,94.9z M188.5,229.1V219H52.2c-27.8,0-50.4,22.6-50.4,50.4v10.1H138
		C165.9,279.5,188.5,256.9,188.5,229.1z"/>
</g>
</svg>
